<?xml version="1.0" encoding="iso-8859-1"?>
<!-- Generator: Adobe Illustrator 19.0.0, SVG Export Plug-In . SVG Version: 6.00 Build 0)  -->
<svg version="1.1" id="Capa_1" xmlns="http://www.w3.org/2000/svg" xmlns:xlink="http://www.w3.org/1999/xlink" x="0px" y="0px"
	 viewBox="0 0 480 480" style="enable-background:new 0 0 480 480;" xml:space="preserve">
<g>
	<g>
		<g>
			<path d="M472,0H8C3.582,0,0,3.582,0,8v464c0,4.418,3.582,8,8,8h464c4.418,0,8-3.582,8-8V8C480,3.582,476.418,0,472,0z M464,464
				H16V80h448V464z M464,64H16V16h448V64z"/>
			<rect x="32" y="32" width="16" height="16"/>
			<rect x="64" y="32" width="16" height="16"/>
			<rect x="96" y="32" width="16" height="16"/>
			<path d="M200,392h80c4.418,0,8-3.582,8-8v-64c0-4.418-3.582-8-8-8h-80c-4.418,0-8,3.582-8,8v64C192,388.418,195.582,392,200,392z
				 M208,328h64v48h-64V328z"/>
			<path d="M200,232h80c4.418,0,8-3.582,8-8v-64c0-4.418-3.582-8-8-8h-80c-4.418,0-8,3.582-8,8v64C192,228.418,195.582,232,200,232z
				 M208,168h64v48h-64V168z"/>
			<path d="M328,392h80c4.418,0,8-3.582,8-8v-64c0-4.418-3.582-8-8-8h-80c-4.418,0-8,3.582-8,8v64C320,388.418,323.582,392,328,392z
				 M336,328h64v48h-64V328z"/>
			<path d="M328,232h80c4.418,0,8-3.582,8-8v-64c0-4.418-3.582-8-8-8h-80c-4.418,0-8,3.582-8,8v64C320,228.418,323.582,232,328,232z
				 M336,168h64v48h-64V168z"/>
			<path d="M72,392h80c4.418,0,8-3.582,8-8v-64c0-4.418-3.582-8-8-8H72c-4.418,0-8,3.582-8,8v64C64,388.418,67.582,392,72,392z
				 M80,328h64v48H80V328z"/>
			<path d="M72,232h80c4.418,0,8-3.582,8-8v-64c0-4.418-3.582-8-8-8H72c-4.418,0-8,3.582-8,8v64C64,228.418,67.582,232,72,232z
				 M80,168h64v48H80V168z"/>
		</g>
	</g>
</g>
<g>
</g>
<g>
</g>
<g>
</g>
<g>
</g>
<g>
</g>
<g>
</g>
<g>
</g>
<g>
</g>
<g>
</g>
<g>
</g>
<g>
</g>
<g>
</g>
<g>
</g>
<g>
</g>
<g>
</g>
</svg>
